<mxfile host="app.diagrams.net" agent="Mozilla/5.0 (Windows NT 10.0; Win64; x64; rv:139.0) Gecko/20100101 Firefox/139.0" version="27.1.1">
  <diagram name="Add Location" id="tIl6RnqKTSIHEopjspMU">
    <mxGraphModel dx="1426" dy="751" grid="1" gridSize="10" guides="1" tooltips="1" connect="1" arrows="1" fold="1" page="1" pageScale="1" pageWidth="1169" pageHeight="827" math="0" shadow="0">
      <root>
        <mxCell id="Y4q63emGkHW4-wnOZY4m-0" />
        <mxCell id="Y4q63emGkHW4-wnOZY4m-1" parent="Y4q63emGkHW4-wnOZY4m-0" />
        <mxCell id="Y4q63emGkHW4-wnOZY4m-2" value="" style="rounded=0;whiteSpace=wrap;html=1;" parent="Y4q63emGkHW4-wnOZY4m-1" vertex="1">
          <mxGeometry x="10" y="10" width="1150" height="70" as="geometry" />
        </mxCell>
        <mxCell id="Y4q63emGkHW4-wnOZY4m-3" value="People Counting Demo" style="text;strokeColor=none;fillColor=none;html=1;fontSize=24;fontStyle=1;verticalAlign=middle;align=center;" parent="Y4q63emGkHW4-wnOZY4m-1" vertex="1">
          <mxGeometry x="460" y="25" width="250" height="40" as="geometry" />
        </mxCell>
        <mxCell id="Y4q63emGkHW4-wnOZY4m-4" value="" style="shape=image;html=1;verticalAlign=top;verticalLabelPosition=bottom;labelBackgroundColor=#ffffff;imageAspect=0;aspect=fixed;image=https://cdn4.iconfinder.com/data/icons/evil-icons-user-interface/64/menu-128.png" parent="Y4q63emGkHW4-wnOZY4m-1" vertex="1">
          <mxGeometry x="20" y="15" width="60" height="60" as="geometry" />
        </mxCell>
        <mxCell id="Y4q63emGkHW4-wnOZY4m-5" value="" style="rounded=0;whiteSpace=wrap;html=1;" parent="Y4q63emGkHW4-wnOZY4m-1" vertex="1">
          <mxGeometry x="20" y="100" width="1130" height="660" as="geometry" />
        </mxCell>
        <mxCell id="Y4q63emGkHW4-wnOZY4m-6" value="" style="rounded=0;whiteSpace=wrap;html=1;" parent="Y4q63emGkHW4-wnOZY4m-1" vertex="1">
          <mxGeometry x="20" y="100" width="1130" height="60" as="geometry" />
        </mxCell>
        <mxCell id="Y4q63emGkHW4-wnOZY4m-7" value="Add Location" style="text;strokeColor=none;fillColor=none;html=1;fontSize=24;fontStyle=1;verticalAlign=middle;align=center;" parent="Y4q63emGkHW4-wnOZY4m-1" vertex="1">
          <mxGeometry x="535" y="110" width="100" height="40" as="geometry" />
        </mxCell>
        <mxCell id="Y4q63emGkHW4-wnOZY4m-8" value="" style="rounded=1;whiteSpace=wrap;html=1;" parent="Y4q63emGkHW4-wnOZY4m-1" vertex="1">
          <mxGeometry x="40" y="180" width="280" height="85" as="geometry" />
        </mxCell>
        <mxCell id="Y4q63emGkHW4-wnOZY4m-9" value="" style="rounded=1;whiteSpace=wrap;html=1;" parent="Y4q63emGkHW4-wnOZY4m-1" vertex="1">
          <mxGeometry x="43.75" y="290" width="280" height="85" as="geometry" />
        </mxCell>
        <mxCell id="Y4q63emGkHW4-wnOZY4m-10" value="Name" style="text;strokeColor=none;fillColor=none;html=1;fontSize=24;fontStyle=1;verticalAlign=middle;align=center;" parent="Y4q63emGkHW4-wnOZY4m-1" vertex="1">
          <mxGeometry x="30" y="180" width="100" height="40" as="geometry" />
        </mxCell>
        <mxCell id="Y4q63emGkHW4-wnOZY4m-11" value="Location" style="text;strokeColor=none;fillColor=none;html=1;fontSize=24;fontStyle=1;verticalAlign=middle;align=center;" parent="Y4q63emGkHW4-wnOZY4m-1" vertex="1">
          <mxGeometry x="53.75" y="295" width="100" height="40" as="geometry" />
        </mxCell>
        <mxCell id="Y4q63emGkHW4-wnOZY4m-12" value="" style="line;strokeWidth=2;html=1;" parent="Y4q63emGkHW4-wnOZY4m-1" vertex="1">
          <mxGeometry x="50" y="250" width="260" height="10" as="geometry" />
        </mxCell>
        <mxCell id="Y4q63emGkHW4-wnOZY4m-13" value="" style="line;strokeWidth=2;html=1;" parent="Y4q63emGkHW4-wnOZY4m-1" vertex="1">
          <mxGeometry x="53.75" y="365" width="260" height="10" as="geometry" />
        </mxCell>
        <mxCell id="Y4q63emGkHW4-wnOZY4m-15" value="" style="rounded=1;whiteSpace=wrap;html=1;" parent="Y4q63emGkHW4-wnOZY4m-1" vertex="1">
          <mxGeometry x="50" y="395" width="260" height="70" as="geometry" />
        </mxCell>
        <mxCell id="Y4q63emGkHW4-wnOZY4m-17" value="" style="shape=image;html=1;verticalAlign=top;verticalLabelPosition=bottom;labelBackgroundColor=#ffffff;imageAspect=0;aspect=fixed;image=https://cdn1.iconfinder.com/data/icons/systemui/21/button_add-128.png" parent="Y4q63emGkHW4-wnOZY4m-1" vertex="1">
          <mxGeometry x="40" y="386" width="88" height="88" as="geometry" />
        </mxCell>
        <mxCell id="Y4q63emGkHW4-wnOZY4m-18" value="Add Locaton" style="text;strokeColor=none;fillColor=none;html=1;fontSize=24;fontStyle=1;verticalAlign=middle;align=center;" parent="Y4q63emGkHW4-wnOZY4m-1" vertex="1">
          <mxGeometry x="160" y="410" width="100" height="40" as="geometry" />
        </mxCell>
      </root>
    </mxGraphModel>
  </diagram>
</mxfile>
